<svg width="303" height="222" viewBox="0 0 303 222" fill="none" xmlns="http://www.w3.org/2000/svg">
<path d="M22.472 175.624C22.6427 175.453 23.0267 175.368 23.624 175.368C24.2213 175.368 24.648 175.453 24.904 175.624L25.8 188.744C25.6293 188.915 25.2027 189 24.52 189C23.88 189 23.496 188.915 23.368 188.744C23.0267 185.928 22.3867 183.688 21.448 182.024C20.296 180.104 18.1627 179.144 15.048 179.144C12.7013 179.144 10.8027 179.891 9.352 181.384C7.944 182.835 7.24 184.477 7.24 186.312C7.24 188.147 7.96533 189.768 9.416 191.176C10.8667 192.584 12.616 193.864 14.664 195.016C16.7547 196.125 18.824 197.299 20.872 198.536C22.9627 199.773 24.7333 201.352 26.184 203.272C27.6347 205.192 28.36 207.411 28.36 209.928C28.36 212.445 27.5493 214.643 25.928 216.52C22.984 219.933 19.0587 221.64 14.152 221.64C10.6107 221.64 7.45333 220.936 4.68 219.528C4.50933 219.443 4.33867 219.4 4.168 219.4C4.04 219.4 3.95467 219.592 3.912 219.976L3.72 221.384C3.54933 221.555 3.12267 221.64 2.44 221.64C1.8 221.64 1.416 221.555 1.288 221.384L0.392 208.264C0.562667 208.093 0.946667 208.008 1.544 208.008C2.14133 208.008 2.568 208.093 2.824 208.264C3.208 211.208 4.552 213.555 6.856 215.304C9.16 217.011 11.8267 217.864 14.856 217.864C16.8613 217.864 18.6533 217.224 20.232 215.944C21.8533 214.621 22.664 212.808 22.664 210.504C22.664 209.011 21.9387 207.645 20.488 206.408C19.0373 205.128 17.288 203.976 15.24 202.952C13.192 201.885 11.144 200.755 9.096 199.56C7.048 198.365 5.29867 196.765 3.848 194.76C2.39733 192.755 1.672 190.451 1.672 187.848C1.672 184.051 2.86667 181.021 5.256 178.76C7.688 176.456 10.4613 175.304 13.576 175.304C16.6907 175.304 19.3147 176.008 21.448 177.416C21.6187 177.544 21.7893 177.608 21.96 177.608C22.1307 177.608 22.2373 177.416 22.28 177.032L22.472 175.624ZM41.4275 220.616L33.2995 221C33.1715 220.872 33.1075 220.531 33.1075 219.976C33.1075 219.379 33.2355 218.952 33.4915 218.696C35.2408 218.696 36.4995 218.461 37.2675 217.992C38.0355 217.48 38.4195 216.627 38.4195 215.432L38.6115 197.512C38.6115 196.317 38.2062 195.485 37.3955 195.016C36.6275 194.504 35.3688 194.248 33.6195 194.248C33.4915 194.12 33.4275 193.779 33.4275 193.224C33.4275 192.627 33.5555 192.2 33.8115 191.944C33.9822 191.944 34.3875 191.901 35.0275 191.816C35.6675 191.731 36.0728 191.688 36.2435 191.688C36.4142 191.645 36.7342 191.581 37.2035 191.496C37.7155 191.368 38.0995 191.219 38.3555 191.048C39.2088 190.579 39.7848 190.195 40.0835 189.896C40.4248 189.555 40.8728 189.384 41.4275 189.384C41.9822 189.384 42.3875 189.469 42.6435 189.64L43.1555 195.208C46.0568 192.52 48.6382 190.835 50.8995 190.152C51.9662 189.811 53.0328 189.64 54.0995 189.64C56.2328 189.64 58.0675 190.173 59.6035 191.24C61.1822 192.264 62.3342 193.693 63.0595 195.528C66.9848 191.603 70.7395 189.64 74.3235 189.64C77.2248 189.64 79.5502 190.557 81.2995 192.392C83.0488 194.227 83.9875 196.637 84.1155 199.624L84.7555 215.432C84.7982 216.627 85.1822 217.48 85.9075 217.992C86.6328 218.461 87.8488 218.696 89.5555 218.696C89.7688 218.909 89.8755 219.336 89.8755 219.976C89.8755 220.573 89.8328 220.915 89.7475 221L82.1315 220.616L74.0035 221C73.8755 220.872 73.8115 220.531 73.8115 219.976C73.8115 219.379 73.9395 218.952 74.1955 218.696C75.9448 218.696 77.2035 218.461 77.9715 217.992C78.7395 217.48 79.1235 216.627 79.1235 215.432L79.1875 200.776C79.1875 198.643 78.5902 196.915 77.3955 195.592C76.2008 194.269 74.4515 193.608 72.1475 193.608C69.8862 193.608 67.1128 195.251 63.8275 198.536L64.3395 215.432C64.3822 216.627 64.7662 217.48 65.4915 217.992C66.2168 218.461 67.4328 218.696 69.1395 218.696C69.3528 218.909 69.4595 219.336 69.4595 219.976C69.4595 220.573 69.4168 220.915 69.3315 221L61.7155 220.616L53.5875 221C53.4595 220.872 53.3955 220.531 53.3955 219.976C53.3955 219.379 53.5235 218.952 53.7795 218.696C55.4862 218.696 56.7235 218.461 57.4915 217.992C58.2595 217.48 58.6648 216.627 58.7075 215.432L58.9635 200.776C59.0062 198.643 58.4302 196.915 57.2355 195.592C56.0408 194.269 54.3768 193.608 52.2435 193.608C51.3902 193.608 50.4728 193.821 49.4915 194.248C48.5528 194.675 47.7848 195.101 47.1875 195.528C45.4808 196.808 44.2648 197.811 43.5395 198.536L44.0515 215.432C44.0942 216.627 44.4782 217.48 45.2035 217.992C45.9715 218.461 47.2088 218.696 48.9155 218.696C49.1288 218.909 49.2355 219.336 49.2355 219.976C49.2355 220.573 49.1928 220.915 49.1075 221L41.4275 220.616ZM101.255 221.64C98.9083 221.64 96.9243 220.893 95.303 219.4C93.6817 217.864 92.871 215.923 92.871 213.576C92.871 211.229 93.8523 209.288 95.815 207.752C97.8203 206.173 101.127 204.915 105.735 203.976L110.151 203.08V201.48C110.151 198.493 109.639 196.339 108.615 195.016C107.634 193.651 105.97 192.968 103.623 192.968C100.38 192.968 98.759 193.629 98.759 194.952C98.759 195.208 99.015 195.635 99.527 196.232C100.039 196.787 100.295 197.405 100.295 198.088C100.295 198.728 99.9963 199.261 99.399 199.688C98.8443 200.072 98.0977 200.264 97.159 200.264C96.2203 200.264 95.4523 199.987 94.855 199.432C94.3003 198.877 94.023 198.109 94.023 197.128C94.023 194.952 95.0683 193.16 97.159 191.752C99.2923 190.344 101.596 189.64 104.071 189.64C108.082 189.64 110.94 190.493 112.647 192.2C114.354 193.864 115.207 196.104 115.207 198.92C115.207 199.005 115.122 204.061 114.951 214.088C114.908 216.819 115.826 218.184 117.703 218.184C118.471 218.184 119.346 217.971 120.327 217.544C120.626 218.056 120.775 218.547 120.775 219.016C120.775 219.443 120.732 219.699 120.647 219.784C120.22 220.211 119.474 220.616 118.407 221C117.34 221.427 116.21 221.64 115.015 221.64C113.18 221.64 111.644 220.488 110.407 218.184C107.719 220.488 104.668 221.64 101.255 221.64ZM106.887 207.24C103.602 208.051 101.404 208.883 100.295 209.736C99.2283 210.547 98.695 211.677 98.695 213.128C98.695 214.536 99.079 215.688 99.847 216.584C100.615 217.48 101.554 217.928 102.663 217.928C103.772 217.928 105.052 217.693 106.503 217.224C107.996 216.712 109.276 216.136 110.343 215.496L110.215 206.408L106.887 207.24ZM131.365 220.616L123.237 221C123.109 220.872 123.045 220.531 123.045 219.976C123.045 219.379 123.173 218.952 123.429 218.696C125.136 218.696 126.373 218.461 127.141 217.992C127.952 217.48 128.357 216.627 128.357 215.432L128.549 197.512C128.549 196.317 128.144 195.485 127.333 195.016C126.565 194.504 125.306 194.248 123.557 194.248C123.429 194.12 123.365 193.779 123.365 193.224C123.365 192.627 123.493 192.2 123.749 191.944C123.92 191.944 124.325 191.901 124.965 191.816C125.605 191.731 126.01 191.688 126.181 191.688C126.352 191.645 126.672 191.581 127.141 191.496C127.653 191.368 128.037 191.219 128.293 191.048C129.146 190.579 129.722 190.195 130.021 189.896C130.362 189.555 130.81 189.384 131.365 189.384C131.92 189.384 132.325 189.469 132.581 189.64L133.221 196.296C133.989 194.589 135.226 193.053 136.933 191.688C138.682 190.323 140.538 189.64 142.501 189.64C143.653 189.64 144.613 190.024 145.381 190.792C146.192 191.517 146.597 192.413 146.597 193.48C146.597 194.504 146.298 195.336 145.701 195.976C145.104 196.573 144.336 196.872 143.397 196.872C141.349 196.872 140.325 196.147 140.325 194.696C140.325 194.312 140.432 193.971 140.645 193.672C140.858 193.373 140.965 193.16 140.965 193.032C140.965 192.904 140.816 192.84 140.517 192.84C139.45 192.84 138 194.035 136.165 196.424C134.373 198.813 133.498 200.989 133.541 202.952L133.989 215.432C134.032 216.627 134.416 217.48 135.141 217.992C135.909 218.461 137.146 218.696 138.853 218.696C139.066 218.909 139.173 219.336 139.173 219.976C139.173 220.573 139.13 220.915 139.045 221L131.365 220.616ZM158.447 209.864C158.49 212.637 158.788 214.643 159.343 215.88C159.94 217.075 161.071 217.672 162.735 217.672C164.442 217.672 166.34 217.096 168.431 215.944C168.602 216.115 168.815 216.435 169.071 216.904C169.327 217.373 169.455 217.693 169.455 217.864C169.455 218.035 169.434 218.141 169.391 218.184C166.916 220.488 164.036 221.64 160.751 221.64C155.588 221.64 153.007 218.12 153.007 211.08C153.007 210.867 153.114 205.256 153.327 194.248H149.295C149.039 193.992 148.911 193.587 148.911 193.032C148.911 192.435 148.975 192.072 149.103 191.944C151.322 191.432 152.879 190.621 153.775 189.512C154.714 188.36 155.375 186.781 155.759 184.776C155.93 184.605 156.292 184.52 156.847 184.52C157.402 184.52 157.807 184.605 158.063 184.776L158.191 190.92H167.919C168.132 191.517 168.239 192.136 168.239 192.776C168.239 193.416 168.068 193.907 167.727 194.248H158.191L158.447 209.864ZM186.633 179.272C184.883 179.272 183.283 179.421 181.833 179.72L182.473 197.64H185.929C189.129 197.64 191.753 196.829 193.801 195.208C195.849 193.587 196.873 191.325 196.873 188.424C196.873 185.48 195.977 183.219 194.185 181.64C192.393 180.061 189.875 179.272 186.633 179.272ZM179.593 176.392L189.128 176.008C192.755 176.008 195.891 177.139 198.537 179.4C201.225 181.619 202.569 184.328 202.569 187.528C202.569 190.685 201.651 193.416 199.817 195.72C198.025 198.024 195.529 199.603 192.329 200.456L198.793 207.944C202.462 212.211 205.129 215.048 206.793 216.456C208.457 217.864 210.163 218.568 211.913 218.568C212.169 218.909 212.297 219.379 212.297 219.976C212.297 220.573 212.254 220.915 212.169 221C211.529 221 210.398 220.915 208.777 220.744C207.198 220.531 205.833 220.424 204.681 220.424C203.529 220.424 201.929 220.531 199.881 220.744C197.833 220.915 196.425 221 195.657 221C195.571 220.957 195.529 220.616 195.529 219.976C195.529 219.336 195.678 218.867 195.977 218.568C197.982 218.568 198.985 218.141 198.985 217.288C198.985 216.264 197.278 213.725 193.865 209.672C190.494 205.576 188.275 203.123 187.208 202.312C186.185 201.501 184.734 201.096 182.857 201.096L183.497 215.24C183.539 216.392 183.859 217.245 184.457 217.8C185.097 218.312 186.185 218.568 187.721 218.568C187.934 218.781 188.041 219.229 188.041 219.912C188.041 220.552 187.998 220.915 187.913 221L180.873 220.616L173.193 221C173.065 220.872 173.001 220.509 173.001 219.912C173.001 219.272 173.129 218.824 173.385 218.568C176.243 218.568 177.673 217.459 177.673 215.24L177.929 181.704C177.929 180.552 177.609 179.72 176.969 179.208C176.329 178.696 175.219 178.44 173.641 178.44C173.385 178.227 173.257 177.8 173.257 177.16C173.257 176.477 173.299 176.093 173.385 176.008L179.593 176.392ZM238.086 217.224C235.142 220.168 231.451 221.64 227.014 221.64C222.619 221.64 219.227 220.147 216.838 217.16C214.448 214.131 213.254 210.312 213.254 205.704C213.254 201.053 214.427 197.213 216.774 194.184C219.163 191.155 222.427 189.64 226.566 189.64C230.747 189.64 233.819 191.112 235.782 194.056C237.787 196.957 238.79 200.712 238.79 205.32H218.885C218.885 208.776 219.632 211.699 221.126 214.088C222.662 216.435 224.838 217.608 227.654 217.608C231.494 217.608 234.736 216.648 237.382 214.728C237.552 214.856 237.766 215.155 238.022 215.624C238.278 216.093 238.406 216.435 238.406 216.648C238.406 216.819 238.299 217.011 238.086 217.224ZM218.95 201.992L227.974 202.056C231.216 202.056 232.944 201.928 233.158 201.672C233.2 201.459 233.222 201.096 233.222 200.584C233.222 198.579 232.646 196.765 231.494 195.144C230.342 193.523 228.678 192.712 226.502 192.712C224.368 192.712 222.619 193.565 221.254 195.272C219.931 196.936 219.163 199.176 218.95 201.992ZM253.468 195.208C257.18 191.496 260.572 189.64 263.644 189.64C266.759 189.64 269.191 190.557 270.94 192.392C272.732 194.227 273.671 196.637 273.756 199.624L274.204 215.432C274.247 216.627 274.631 217.48 275.356 217.992C276.081 218.461 277.297 218.696 279.004 218.696C279.217 218.909 279.324 219.336 279.324 219.976C279.324 220.573 279.281 220.915 279.196 221L271.58 220.616L263.772 221C263.644 220.872 263.58 220.531 263.58 219.976C263.58 219.379 263.708 218.952 263.964 218.696C265.585 218.696 266.737 218.461 267.42 217.992C268.145 217.48 268.529 216.627 268.572 215.432L268.828 200.776C268.871 198.643 268.295 196.915 267.1 195.592C265.905 194.269 264.241 193.608 262.108 193.608C260.572 193.608 258.972 194.248 257.308 195.528C256.753 195.955 256.071 196.531 255.26 197.256C254.492 197.981 254.023 198.408 253.852 198.536L254.364 215.432C254.407 216.627 254.769 217.48 255.452 217.992C256.135 218.461 257.287 218.696 258.908 218.696C259.121 218.909 259.228 219.336 259.228 219.976C259.228 220.573 259.185 220.915 259.1 221L251.74 220.616L243.612 221C243.484 220.872 243.42 220.531 243.42 219.976C243.42 219.379 243.548 218.952 243.804 218.696C245.511 218.696 246.748 218.461 247.516 217.992C248.327 217.48 248.732 216.627 248.732 215.432L248.924 197.512C248.924 196.317 248.519 195.485 247.708 195.016C246.94 194.504 245.681 194.248 243.932 194.248C243.804 194.12 243.74 193.779 243.74 193.224C243.74 192.627 243.868 192.2 244.124 191.944C244.295 191.944 244.7 191.901 245.34 191.816C245.98 191.731 246.385 191.688 246.556 191.688C246.727 191.645 247.047 191.581 247.516 191.496C248.028 191.368 248.412 191.219 248.668 191.048C249.521 190.579 250.097 190.195 250.396 189.896C250.737 189.555 251.185 189.384 251.74 189.384C252.295 189.384 252.7 189.469 252.956 189.64L253.468 195.208ZM291.01 209.864C291.052 212.637 291.351 214.643 291.906 215.88C292.503 217.075 293.634 217.672 295.298 217.672C297.004 217.672 298.903 217.096 300.994 215.944C301.164 216.115 301.378 216.435 301.634 216.904C301.89 217.373 302.018 217.693 302.018 217.864C302.018 218.035 301.996 218.141 301.954 218.184C299.479 220.488 296.599 221.64 293.314 221.64C288.151 221.64 285.57 218.12 285.57 211.08C285.57 210.867 285.676 205.256 285.89 194.248H281.858C281.602 193.992 281.474 193.587 281.474 193.032C281.474 192.435 281.538 192.072 281.666 191.944C283.884 191.432 285.442 190.621 286.338 189.512C287.276 188.36 287.938 186.781 288.322 184.776C288.492 184.605 288.855 184.52 289.41 184.52C289.964 184.52 290.37 184.605 290.626 184.776L290.754 190.92H300.482C300.695 191.517 300.802 192.136 300.802 192.776C300.802 193.416 300.631 193.907 300.29 194.248H290.754L291.01 209.864Z" fill="black"/>
<path d="M84.3816 26.1714L66.5334 9.19381" stroke="#60F2E7" stroke-width="4" stroke-linecap="round"/>
<path d="M115.596 15.1423L106.522 6.81328" stroke="#60F2E7" stroke-width="4" stroke-linecap="round"/>
<path d="M68.3627 53.0169L58 46.3601" stroke="#60F2E7" stroke-width="4" stroke-linecap="round"/>
<path d="M213.501 25.1004L224.135 2.88042" stroke="#E9D236" stroke-width="4" stroke-linecap="round"/>
<path d="M226.81 51.3561L233.618 41.092" stroke="#E9D236" stroke-width="4" stroke-linecap="round"/>
<path d="M193.053 6.12585L189.377 17.8811" stroke="#E9D236" stroke-width="4" stroke-linecap="round"/>
<path d="M216.56 135.205L236.12 150.178" stroke="#E9D236" stroke-width="4" stroke-linecap="round"/>
<path d="M188.662 144.675L197.293 153.462" stroke="#E9D236" stroke-width="4" stroke-linecap="round"/>
<path d="M230.432 107.943L241.597 113.144" stroke="#E9D236" stroke-width="4" stroke-linecap="round"/>
<path d="M86.2551 133.829L70.7399 152.962" stroke="#60F2E7" stroke-width="4" stroke-linecap="round"/>
<path d="M77.3931 107.166L69.4432 116.574" stroke="#60F2E7" stroke-width="4" stroke-linecap="round"/>
<path d="M114.802 147.356L108.909 158.171" stroke="#60F2E7" stroke-width="4" stroke-linecap="round"/>
<path d="M95.067 92.7174C106.865 55.7877 120.562 42.7218 161.451 37.1718" stroke="url(#paint0_linear_0_1)" stroke-width="2" stroke-linecap="round"/>
<path d="M101.163 102.878C120.469 63.2512 138.758 50.7195 173.644 43.2683" stroke="url(#paint1_linear_0_1)" stroke-width="2" stroke-linecap="round"/>
<path d="M200.118 65.1662C178.484 102.915 156.66 114.142 114.711 119.813" stroke="url(#paint2_linear_0_1)" stroke-width="2" stroke-linecap="round"/>
<path d="M205.481 84.2501C191.514 113.018 171.104 121.447 129.614 126.061" stroke="url(#paint3_linear_0_1)" stroke-width="2" stroke-linecap="round"/>
<rect x="95.3896" y="37.4944" width="109.769" height="88.0922" stroke="url(#paint4_linear_0_1)" stroke-width="2"/>
<rect x="101.486" y="43.5909" width="98.253" height="75.8993" stroke="url(#paint5_linear_0_1)" stroke-width="2"/>
<defs>
<linearGradient id="paint0_linear_0_1" x1="128.259" y1="37.1718" x2="128.259" y2="92.7174" gradientUnits="userSpaceOnUse">
<stop offset="0.00520833" stop-color="#E9D236" stop-opacity="0.8"/>
<stop offset="0.317708" stop-color="#CABE58" stop-opacity="0.5"/>
<stop offset="0.651042" stop-color="#7FECE6" stop-opacity="0.5"/>
<stop offset="1" stop-color="#6BC6C1" stop-opacity="0.8"/>
</linearGradient>
<linearGradient id="paint1_linear_0_1" x1="137.404" y1="43.2683" x2="137.404" y2="102.878" gradientUnits="userSpaceOnUse">
<stop offset="0.00520833" stop-color="#E9D236" stop-opacity="0.8"/>
<stop offset="0.317708" stop-color="#CABE58" stop-opacity="0.5"/>
<stop offset="0.651042" stop-color="#7FECE6" stop-opacity="0.5"/>
<stop offset="1" stop-color="#6BC6C1" stop-opacity="0.8"/>
</linearGradient>
<linearGradient id="paint2_linear_0_1" x1="157.069" y1="120.338" x2="157.76" y2="64.6408" gradientUnits="userSpaceOnUse">
<stop offset="0.0625" stop-color="#6BC6C1" stop-opacity="0.8"/>
<stop offset="0.213542" stop-color="#7FECE6" stop-opacity="0.5"/>
<stop offset="0.369792" stop-color="#CABE58" stop-opacity="0.5"/>
<stop offset="0.786458" stop-color="#E9D236" stop-opacity="0.8"/>
</linearGradient>
<linearGradient id="paint3_linear_0_1" x1="167.619" y1="126.533" x2="168.153" y2="83.44" gradientUnits="userSpaceOnUse">
<stop stop-color="#6BC6C1" stop-opacity="0.8"/>
<stop offset="0.208333" stop-color="#7FECE6" stop-opacity="0.5"/>
<stop offset="0.421875" stop-color="#CABE58" stop-opacity="0.5"/>
<stop offset="0.541667" stop-color="#E9D236" stop-opacity="0.8"/>
</linearGradient>
<linearGradient id="paint4_linear_0_1" x1="150.274" y1="36.4944" x2="150.274" y2="126.587" gradientUnits="userSpaceOnUse">
<stop offset="0.213542" stop-color="#E9D236" stop-opacity="0.8"/>
<stop offset="0.348958" stop-color="#CABE58" stop-opacity="0.5"/>
<stop offset="0.619792" stop-color="#7FECE6" stop-opacity="0.8"/>
<stop offset="0.770833" stop-color="#6BC6C1" stop-opacity="0.5"/>
</linearGradient>
<linearGradient id="paint5_linear_0_1" x1="150.613" y1="42.5909" x2="150.613" y2="120.49" gradientUnits="userSpaceOnUse">
<stop offset="0.213542" stop-color="#E9D236" stop-opacity="0.8"/>
<stop offset="0.348958" stop-color="#CABE58" stop-opacity="0.5"/>
<stop offset="0.619792" stop-color="#7FECE6" stop-opacity="0.8"/>
<stop offset="0.770833" stop-color="#6BC6C1" stop-opacity="0.5"/>
</linearGradient>
</defs>
</svg>
